<svg xmlns="http://www.w3.org/2000/svg" viewBox="0 0 240 240">
  <path d="M12 12 C48 42 85 75 120 108 C145 132 165 156 180 182" stroke="#3b5240" stroke-width="2.5" fill="none" opacity="0.7"/>
  <path d="M34 40 C24 44 18 54 28 58 C38 62 48 48 34 40Z" fill="#3b5240" opacity="0.55"/>
  <path d="M74 80 C62 84 56 96 66 100 C76 104 86 88 74 80Z" fill="#7fa185" opacity="0.5"/>
  <path d="M110 114 C98 118 92 130 102 134 C112 138 122 122 110 114Z" fill="#3b5240" opacity="0.55"/>
  <path d="M146 148 C134 152 128 164 138 168 C148 172 158 156 146 148Z" fill="#7fa185" opacity="0.5"/>
  <path d="M174 176 C166 180 160 190 170 194 C180 198 186 186 174 176Z" fill="#3b5240" opacity="0.55"/>
</svg>
